# xmcd
#
# Track frame offsets: 
#        150
#        15867
#        27932
#        41552
#        55472
#        66737
#        79570
#        90765
#        103617
#        118960
#        135377
#        148977
#        163942
#        180257
#        193070
#        206065
#        222270
#
# Disc length: 3128 seconds
#
# Revision: 3
# Processed by: cddbd v1.4PL0 Copyright (c) Steve Scherf et al.
# Submitted via: ExactAudioCopy v0.90b2
#
DISCID=f10c3611
DTITLE=Janie Fricke - 17 Greatest Hits
DYEAR=1986
DGENRE=Country
TTITLE0=Playin' Hard To Get
TTITLE1=I'll Love Away Your Troubles For Awhile
TTITLE2=Pass Me By (If You're Only Passing Through)
TTITLE3=But Love Me
TTITLE4=Down To My Last Broken Heart
TTITLE5=I'll Need Someone To Hold Me (When I Cry)
TTITLE6=Don't Worry 'Bout Me Baby
TTITLE7=Do Me With Love
TTITLE8=You Don't Know Love
TTITLE9=It Ain't Easy Bein' Easy
TTITLE10=He's A Heartache (Looking For A Place To Happen)
TTITLE11=Let's Stop Talkin' About It
TTITLE12=Tell Me A Lie
TTITLE13=If The Fall Don't Get You
TTITLE14=Your Heart's Not In It
TTITLE15=The First Word In Memory Is Me
TTITLE16=She's Single Again
EXTD=
EXTT0=
EXTT1=
EXTT2=
EXTT3=
EXTT4=
EXTT5=
EXTT6=
EXTT7=
EXTT8=
EXTT9=
EXTT10=
EXTT11=
EXTT12=
EXTT13=
EXTT14=
EXTT15=
EXTT16=
PLAYORDER=
